<svg width="25" height="25" viewBox="0 0 25 25" fill="none" xmlns="http://www.w3.org/2000/svg">
<path id="Vector" d="M22.678 3.4062C23.5105 3.4062 24.1853 2.91157 24.1853 2.30139V1.56485C24.1853 0.954671 23.5105 0.460037 22.678 0.460037H1.57558C0.743106 0.460037 0.0682678 0.954671 0.0682678 1.56485V2.30139C0.0682678 2.91157 0.743106 3.4062 1.57558 3.4062C1.57558 7.59367 4.77964 11.1276 9.16505 12.2447C4.77964 13.3618 1.57558 16.8957 1.57558 21.0832C0.743106 21.0832 0.0682678 21.5778 0.0682678 22.188V22.9246C0.0682678 23.5347 0.743106 24.0294 1.57558 24.0294H22.678C23.5105 24.0294 24.1853 23.5347 24.1853 22.9246V22.188C24.1853 21.5778 23.5105 21.0832 22.678 21.0832C22.678 16.8957 19.474 13.3618 15.0886 12.2447C19.474 11.1276 22.678 7.59367 22.678 3.4062Z" fill="#7166F9"/>
</svg>
