<svg width="21" height="22" viewBox="0 0 21 22" fill="none" xmlns="http://www.w3.org/2000/svg">
<path d="M13.2896 18.5C13.1157 18.5 12.9458 18.5496 12.8013 18.6425C12.6567 18.7354 12.5441 18.8675 12.4775 19.022C12.411 19.1765 12.3936 19.3465 12.4275 19.5106C12.4614 19.6746 12.5452 19.8253 12.6681 19.9436C12.791 20.0618 12.9476 20.1424 13.1181 20.175C13.2886 20.2076 13.4653 20.1909 13.6259 20.1269C13.7865 20.0629 13.9238 19.9545 14.0203 19.8154C14.1169 19.6763 14.1685 19.5128 14.1685 19.3456C14.1685 19.1213 14.0759 18.9062 13.911 18.7476C13.7462 18.5891 13.5227 18.5 13.2896 18.5ZM18.7544 11.5657C18.2905 10.8789 16.832 9.10162 14.4937 8.10283C14.1974 7.97567 13.8983 7.86182 13.5962 7.76129C13.7949 7.29398 13.8916 6.79238 13.8804 6.2876C13.8692 5.78282 13.7503 5.28565 13.5311 4.82693C13.3119 4.36821 12.997 3.95773 12.606 3.62097C12.2151 3.2842 11.7563 3.02834 11.2583 2.86927C10.6523 2.67665 10.1191 2.58739 9.67578 2.59819C9.64648 2.50423 9.5835 2.08141 10.1348 0.953894L9.0166 0.318726L8.74902 0.673894C8.32471 1.24047 7.92285 1.78027 7.56055 2.31302C7.42752 2.28279 7.29214 2.26315 7.15576 2.2543C5.12793 2.1392 5.25146 2.14484 5.15088 2.14484C2.67969 2.14484 2.67285 4.59343 2.67285 4.30027L2.55762 6.0235C2.479 7.29196 3.52197 8.38236 4.8833 8.45941L5.31934 8.48478C4.49021 8.93941 3.72972 9.50119 3.05908 10.1544C0 13.1283 0 16.3859 0 19.0059V20.5863L1.13867 19.1863C1.29131 19.8028 1.53048 20.3965 1.84961 20.9509C2.13184 21.4268 2.57568 21.3949 2.80859 21.2953C3.01416 21.2074 3.29687 20.9702 2.9917 20.3505C2.60154 19.5622 2.34189 18.72 2.22217 17.8545L4.5083 15.0436L3.3042 18.5253C6.14746 16.5334 10.9888 15.6238 14.8398 16.7124C16.5098 17.1845 18.1333 16.7448 18.9775 15.5924C19.0127 15.5454 19.0361 15.4909 19.0679 15.4411C19.1558 15.8814 19.2015 16.3284 19.2046 16.7767C19.2046 17.8714 19.0244 19.2634 18.478 20.6122C18.355 20.9157 18.564 21.2934 18.8979 21.3516C19.2603 21.4254 19.6465 21.206 19.7949 20.8278C20.2637 19.6275 20.5078 18.2651 20.5078 16.7767C20.5078 14.9642 19.873 13.1377 18.7544 11.5657ZM6.26807 4.85605L5.50146 4.81236L5.43359 5.83605L6.07471 5.87269C6.04629 6.17883 6.05153 6.48701 6.09033 6.79209L4.99756 6.72914C4.91884 6.72599 4.84153 6.70796 4.77006 6.67605C4.69859 6.64415 4.63435 6.599 4.58102 6.5432C4.52769 6.4874 4.48632 6.42203 4.45926 6.35083C4.43221 6.27963 4.42 6.204 4.42334 6.12826L4.54102 4.40598C4.58984 3.83423 5.21826 3.87652 5.18848 3.87417L6.60986 3.95544C6.47399 4.24751 6.35977 4.54846 6.26807 4.85605ZM13.5151 12.9451C13.4117 13.0222 13.2816 13.0584 13.1513 13.0462C13.0211 13.0341 12.9006 12.9745 12.8145 12.8797L12.3418 12.3399L10.6611 13.6084C10.5812 13.6689 10.4801 13.6974 10.3788 13.6879C10.2776 13.6785 10.1841 13.6318 10.1177 13.5577L9.34717 12.682C9.28899 12.6092 9.2632 12.5171 9.27547 12.4261C9.28773 12.335 9.33705 12.2523 9.4126 12.1962L11.1006 10.9193L10.4102 10.1328L9.57568 10.7647C9.49953 10.8218 9.40357 10.8488 9.30744 10.8401C9.21131 10.8313 9.12228 10.7876 9.05859 10.7177C9.05859 10.7177 8.87695 10.5101 8.87305 10.5049C8.81502 10.4319 8.78948 10.3398 8.80202 10.2487C8.81456 10.1576 8.86417 10.0751 8.93994 10.0191L9.76562 9.39478C9.76562 9.39478 8.86182 8.36122 8.85742 8.35464C8.81992 8.3079 8.79237 8.2545 8.77634 8.1975C8.76031 8.1405 8.75612 8.08102 8.76401 8.02246C8.7719 7.9639 8.79172 7.90741 8.82233 7.85622C8.85293 7.80504 8.89373 7.76017 8.94238 7.72417C9.04494 7.6462 9.17483 7.60937 9.30494 7.62136C9.43506 7.63336 9.55532 7.69325 9.64062 7.78853L13.6001 12.3136C13.6376 12.3605 13.6652 12.4139 13.6812 12.471C13.6973 12.5281 13.7015 12.5876 13.6936 12.6463C13.6857 12.7049 13.6659 12.7615 13.6353 12.8127C13.6046 12.864 13.5638 12.909 13.5151 12.9451ZM8.46875 18.5C8.29492 18.5 8.12499 18.5496 7.98046 18.6425C7.83592 18.7354 7.72327 18.8675 7.65675 19.022C7.59022 19.1765 7.57282 19.3465 7.60673 19.5106C7.64064 19.6746 7.72435 19.8253 7.84727 19.9436C7.97019 20.0618 8.12679 20.1424 8.29728 20.175C8.46778 20.2076 8.64449 20.1909 8.80509 20.1269C8.96569 20.0629 9.10296 19.9545 9.19953 19.8154C9.29611 19.6763 9.34766 19.5128 9.34766 19.3456C9.34766 19.1213 9.25506 18.9062 9.09023 18.7476C8.9254 18.5891 8.70185 18.5 8.46875 18.5Z" fill="#E17CFD"/>
</svg>
