<svg width="24" height="24" viewBox="0 0 24 24" fill="none" xmlns="http://www.w3.org/2000/svg">
<path id="Vector" d="M12 0.318726C5.37097 0.318726 0 5.4864 0 11.8645C0 18.2426 5.37097 23.4103 12 23.4103C18.629 23.4103 24 18.2426 24 11.8645C24 5.4864 18.629 0.318726 12 0.318726ZM18.9677 13.1681C18.9677 13.4753 18.7065 13.7267 18.3871 13.7267H13.9355V18.0099C13.9355 18.3171 13.6742 18.5685 13.3548 18.5685H10.6452C10.3258 18.5685 10.0645 18.3171 10.0645 18.0099V13.7267H5.6129C5.29355 13.7267 5.03226 13.4753 5.03226 13.1681V10.561C5.03226 10.2537 5.29355 10.0023 5.6129 10.0023H10.0645V5.71917C10.0645 5.41191 10.3258 5.16051 10.6452 5.16051H13.3548C13.6742 5.16051 13.9355 5.41191 13.9355 5.71917V10.0023H18.3871C18.7065 10.0023 18.9677 10.2537 18.9677 10.561V13.1681Z" fill="#7166F9"/>
</svg>
