<svg width="25" height="25" viewBox="0 0 25 25" fill="none" xmlns="http://www.w3.org/2000/svg">
<path id="Vector" d="M16.4566 16.6374H18.2654C18.5668 16.6374 18.8683 16.2405 18.8683 15.8435V7.50834C18.8683 7.11143 18.5668 6.71451 18.2654 6.71451H16.4566C16.1551 6.71451 15.8536 7.11143 15.8536 7.50834V15.8435C15.8536 16.2405 16.1551 16.6374 16.4566 16.6374ZM20.9785 16.6374H22.7873C23.0888 16.6374 23.3902 16.2405 23.3902 15.8435V1.55463C23.3902 1.15772 23.0888 0.760803 22.7873 0.760803H20.9785C20.6771 0.760803 20.3756 1.15772 20.3756 1.55463V15.8435C20.3756 16.2405 20.6771 16.6374 20.9785 16.6374ZM7.41267 16.6374H9.22145C9.52291 16.6374 9.82437 16.2405 9.82437 15.8435V11.4775C9.82437 11.0806 9.52291 10.6837 9.22145 10.6837H7.41267C7.1112 10.6837 6.80974 11.0806 6.80974 11.4775V15.8435C6.80974 16.2405 7.1112 16.6374 7.41267 16.6374ZM11.9346 16.6374H13.7434C14.0449 16.6374 14.3463 16.2405 14.3463 15.8435V3.5392C14.3463 3.14229 14.0449 2.74537 13.7434 2.74537H11.9346C11.6332 2.74537 11.3317 3.14229 11.3317 3.5392V15.8435C11.3317 16.2405 11.6332 16.6374 11.9346 16.6374ZM24.1439 20.6065H3.79511V1.75309C3.79511 1.20485 3.45784 0.760803 3.04145 0.760803H1.53413C1.11773 0.760803 0.780472 1.20485 0.780472 1.75309V22.5911C0.780472 23.6869 1.45547 24.5756 2.28779 24.5756H24.1439C24.5603 24.5756 24.8975 24.1316 24.8975 23.5834V21.5988C24.8975 21.0506 24.5603 20.6065 24.1439 20.6065Z" fill="#FDFDFD"/>
</svg>
