<svg width="24" height="24" viewBox="0 0 24 24" fill="none" xmlns="http://www.w3.org/2000/svg">
<path id="Vector" d="M14 6.37501V0H1.5C0.66875 0 0 0.501563 0 1.125V22.875C0 23.4985 0.66875 24 1.5 24H22.5C23.3312 24 24 23.4985 24 22.875V7.50001H15.5C14.675 7.50001 14 6.99376 14 6.37501ZM18 17.4375C18 17.7469 17.6625 18 17.25 18H6.75C6.3375 18 6 17.7469 6 17.4375V17.0625C6 16.7531 6.3375 16.5 6.75 16.5H17.25C17.6625 16.5 18 16.7531 18 17.0625V17.4375ZM18 14.4375C18 14.7469 17.6625 15 17.25 15H6.75C6.3375 15 6 14.7469 6 14.4375V14.0625C6 13.7531 6.3375 13.5 6.75 13.5H17.25C17.6625 13.5 18 13.7531 18 14.0625V14.4375ZM18 11.0625V11.4375C18 11.7469 17.6625 12 17.25 12H6.75C6.3375 12 6 11.7469 6 11.4375V11.0625C6 10.7531 6.3375 10.5 6.75 10.5H17.25C17.6625 10.5 18 10.7531 18 11.0625ZM24 5.71407V6.00001H16V0H16.3813C16.7812 0 17.1625 0.117188 17.4438 0.328125L23.5625 4.92188C23.8438 5.13282 24 5.41876 24 5.71407Z" fill="black"/>
</svg>
