<svg width="24" height="24" viewBox="0 0 24 24" fill="none" xmlns="http://www.w3.org/2000/svg">
<path id="Vector" d="M24 12C24 18.6289 18.627 24.0001 12 24.0001C5.37305 24.0001 0 18.6289 0 12C0 5.375 5.37305 0 12 0C18.627 0 24 5.375 24 12ZM12.322 3.96775C9.68506 3.96775 8.00323 5.07858 6.68255 7.05282C6.51145 7.3086 6.56869 7.65355 6.81392 7.8395L8.4929 9.11257C8.74476 9.30356 9.1036 9.25812 9.29927 9.00989C10.1637 7.91354 10.7564 7.27778 12.072 7.27778C13.0605 7.27778 14.2832 7.91397 14.2832 8.87252C14.2832 9.59717 13.685 9.96932 12.709 10.5165C11.5707 11.1546 10.0645 11.9488 10.0645 13.9355V14.1291C10.0645 14.4497 10.3245 14.7097 10.6452 14.7097H13.3548C13.6755 14.7097 13.9355 14.4497 13.9355 14.1291V14.0646C13.9355 12.6874 17.9606 12.63 17.9606 8.90325C17.9606 6.09669 15.0494 3.96775 12.322 3.96775ZM12 15.9678C10.7727 15.9678 9.77419 16.9663 9.77419 18.1936C9.77419 19.4209 10.7727 20.4194 12 20.4194C13.2273 20.4194 14.2258 19.4209 14.2258 18.1936C14.2258 16.9663 13.2273 15.9678 12 15.9678Z" fill="black"/>
</svg>
