<svg width="24" height="24" viewBox="0 0 24 24" fill="none" xmlns="http://www.w3.org/2000/svg">
<path id="Vector" d="M16.0014 5.71408C16.0014 5.41876 15.8972 5.13283 15.7097 4.92189L11.6302 0.328126C11.4427 0.117188 11.1885 0 10.9218 0H10.6676V6.00002H16.0014V5.71408ZM23.7937 14.4375L19.8059 9.91878C19.385 9.44534 18.6641 9.77815 18.6641 10.4485V13.5H15.9972V16.5H18.6641V19.5563C18.6641 20.2266 19.385 20.5594 19.8059 20.086L23.7937 15.5625C24.0688 15.2532 24.0688 14.7469 23.7937 14.4375ZM8.00069 15.75V14.25C8.00069 13.8375 8.30072 13.5 8.66742 13.5H16.0014V7.50002H10.3342C9.78418 7.50002 9.33414 6.99377 9.33414 6.37502V0H1.00009C0.445872 0 0 0.501564 0 1.125V22.8751C0 23.4985 0.445872 24.0001 1.00009 24.0001H15.0013C15.5555 24.0001 16.0014 23.4985 16.0014 22.8751V16.5H8.66742C8.30072 16.5 8.00069 16.1625 8.00069 15.75Z" fill="#928484"/>
</svg>
