<svg width="24" height="24" viewBox="0 0 24 24" fill="none" xmlns="http://www.w3.org/2000/svg">
<path id="Vector" d="M17.3336 2.4C16.2193 3.30469 15.2132 4.25578 14.3218 5.2111C12.8614 3.45094 11.0507 1.66547 9 0C3.73607 4.2736 0 9.84188 0 13.2C0 19.1649 5.37268 24 12 24C18.6273 24 24 19.1649 24 13.2C24 10.703 21.2154 5.55282 17.3336 2.4ZM16.2905 18.368C15.1302 19.0786 13.6993 19.5 12.1532 19.5C8.28804 19.5 5.14286 17.2622 5.14286 13.6289C5.14286 11.8191 6.44518 10.2244 9.04232 7.5C9.41357 7.87407 14.3368 13.3753 14.3368 13.3753L17.4777 10.2403C17.6995 10.5614 17.9014 10.8755 18.0814 11.1764C19.5466 13.6228 18.9284 16.7531 16.2905 18.368Z" fill="black"/>
</svg>
