<svg width="24" height="24" viewBox="0 0 24 24" fill="none" xmlns="http://www.w3.org/2000/svg">
<path id="Vector" d="M11.6818 6.22623L4.00032 14.362V23.1428C4.00032 23.3701 4.07055 23.5882 4.19556 23.7489C4.32058 23.9097 4.49013 24 4.66693 24L9.33574 23.9845C9.51196 23.9833 9.68066 23.8925 9.80495 23.7319C9.92925 23.5712 9.99902 23.3539 9.99902 23.1272V17.9993C9.99902 17.772 10.0693 17.5539 10.1943 17.3932C10.3193 17.2324 10.4888 17.1421 10.6656 17.1421H13.3321C13.5089 17.1421 13.6784 17.2324 13.8035 17.3932C13.9285 17.5539 13.9987 17.772 13.9987 17.9993V23.1235C13.9984 23.2363 14.0155 23.348 14.0489 23.4524C14.0822 23.5567 14.1313 23.6515 14.1932 23.7314C14.2551 23.8113 14.3287 23.8747 14.4097 23.9179C14.4908 23.9611 14.5776 23.9834 14.6653 23.9834L19.3325 24C19.5093 24 19.6788 23.9097 19.8038 23.7489C19.9289 23.5882 19.9991 23.3701 19.9991 23.1428V14.3561L12.3193 6.22623C12.229 6.13265 12.1165 6.08161 12.0005 6.08161C11.8846 6.08161 11.7721 6.13265 11.6818 6.22623ZM23.8155 11.756L20.3324 8.06394V0.642929C20.3324 0.472414 20.2797 0.308882 20.186 0.18831C20.0922 0.0677371 19.965 0 19.8324 0H17.4993C17.3667 0 17.2395 0.0677371 17.1457 0.18831C17.052 0.308882 16.9993 0.472414 16.9993 0.642929V4.53319L13.2692 0.586673C12.9112 0.207869 12.462 0.000757234 11.9984 0.000757234C11.5349 0.000757234 11.0857 0.207869 10.7277 0.586673L0.181444 11.756C0.130818 11.8098 0.0889323 11.8759 0.0581813 11.9505C0.0274303 12.0251 0.00841634 12.1068 0.00222573 12.1909C-0.00396488 12.275 0.00278923 12.3598 0.0221021 12.4406C0.041415 12.5213 0.0729083 12.5963 0.114782 12.6614L1.1772 14.3223C1.21896 14.3876 1.27033 14.4417 1.32835 14.4814C1.38638 14.5212 1.44994 14.5458 1.51538 14.5539C1.58082 14.562 1.64686 14.5535 1.70973 14.5287C1.77259 14.5039 1.83104 14.4635 1.88173 14.4097L11.6818 4.02956C11.7721 3.93597 11.8846 3.88494 12.0005 3.88494C12.1165 3.88494 12.229 3.93597 12.3193 4.02956L22.1198 14.4097C22.1704 14.4635 22.2287 14.504 22.2915 14.5288C22.3543 14.5537 22.4202 14.5624 22.4856 14.5544C22.551 14.5464 22.6145 14.522 22.6726 14.4824C22.7306 14.4429 22.782 14.389 22.8239 14.3239L23.8863 12.663C23.9281 12.5976 23.9595 12.5222 23.9786 12.4411C23.9976 12.36 24.0041 12.2749 23.9975 12.1906C23.9909 12.1063 23.9714 12.0245 23.9402 11.9499C23.909 11.8753 23.8666 11.8094 23.8155 11.756Z" fill="#7166F9"/>
</svg>
