<svg width="23" height="25" viewBox="0 0 23 25" fill="none" xmlns="http://www.w3.org/2000/svg">
<path id="Vector" d="M0.0682678 22.2823C0.0682678 23.5531 1.12319 24.584 2.42345 24.584H19.6948C20.995 24.584 22.05 23.5531 22.05 22.2823V9.23942H0.0682678V22.2823ZM15.7695 12.8838C15.7695 12.5673 16.0344 12.3083 16.3583 12.3083H18.3209C18.6448 12.3083 18.9097 12.5673 18.9097 12.8838V14.8018C18.9097 15.1183 18.6448 15.3773 18.3209 15.3773H16.3583C16.0344 15.3773 15.7695 15.1183 15.7695 14.8018V12.8838ZM15.7695 19.0216C15.7695 18.7051 16.0344 18.4462 16.3583 18.4462H18.3209C18.6448 18.4462 18.9097 18.7051 18.9097 19.0216V20.9397C18.9097 21.2562 18.6448 21.5151 18.3209 21.5151H16.3583C16.0344 21.5151 15.7695 21.2562 15.7695 20.9397V19.0216ZM9.489 12.8838C9.489 12.5673 9.75396 12.3083 10.0778 12.3083H12.0404C12.3643 12.3083 12.6292 12.5673 12.6292 12.8838V14.8018C12.6292 15.1183 12.3643 15.3773 12.0404 15.3773H10.0778C9.75396 15.3773 9.489 15.1183 9.489 14.8018V12.8838ZM9.489 19.0216C9.489 18.7051 9.75396 18.4462 10.0778 18.4462H12.0404C12.3643 18.4462 12.6292 18.7051 12.6292 19.0216V20.9397C12.6292 21.2562 12.3643 21.5151 12.0404 21.5151H10.0778C9.75396 21.5151 9.489 21.2562 9.489 20.9397V19.0216ZM3.20851 12.8838C3.20851 12.5673 3.47347 12.3083 3.79731 12.3083H5.75996C6.0838 12.3083 6.34876 12.5673 6.34876 12.8838V14.8018C6.34876 15.1183 6.0838 15.3773 5.75996 15.3773H3.79731C3.47347 15.3773 3.20851 15.1183 3.20851 14.8018V12.8838ZM3.20851 19.0216C3.20851 18.7051 3.47347 18.4462 3.79731 18.4462H5.75996C6.0838 18.4462 6.34876 18.7051 6.34876 19.0216V20.9397C6.34876 21.2562 6.0838 21.5151 5.75996 21.5151H3.79731C3.47347 21.5151 3.20851 21.2562 3.20851 20.9397V19.0216ZM19.6948 3.10158H17.3396V0.799885C17.3396 0.377908 16.9863 0.0326538 16.5545 0.0326538H14.9844C14.5526 0.0326538 14.1994 0.377908 14.1994 0.799885V3.10158H7.91888V0.799885C7.91888 0.377908 7.5656 0.0326538 7.13382 0.0326538H5.56369C5.13191 0.0326538 4.77863 0.377908 4.77863 0.799885V3.10158H2.42345C1.12319 3.10158 0.0682678 4.13254 0.0682678 5.40327V7.70496H22.05V5.40327C22.05 4.13254 20.995 3.10158 19.6948 3.10158Z" fill="#7166F9"/>
</svg>
