<svg width="24" height="25" viewBox="0 0 24 25" fill="none" xmlns="http://www.w3.org/2000/svg">
<path id="Vector" d="M22.8885 15.0195L20.8084 13.8183C21.0184 12.6855 21.0184 11.5234 20.8084 10.3906L22.8885 9.18944C23.1277 9.05272 23.2352 8.76952 23.157 8.50585C22.615 6.76758 21.6922 5.19533 20.4861 3.88674C20.3006 3.68655 19.9979 3.63772 19.7635 3.77444L17.6834 4.9756C16.8094 4.22365 15.8035 3.6426 14.7147 3.26174V0.864298C14.7147 0.590862 14.5242 0.351606 14.2557 0.293013C12.4637 -0.107375 10.6277 -0.0878443 8.92364 0.293013C8.65508 0.351606 8.46465 0.590862 8.46465 0.864298V3.26663C7.38067 3.65237 6.37481 4.23342 5.4959 4.98048L3.42071 3.77932C3.18145 3.6426 2.8836 3.68655 2.69805 3.89162C1.492 5.19533 0.569147 6.76758 0.0271543 8.51073C-0.0558535 8.7744 0.0564511 9.05761 0.295709 9.19432L2.37579 10.3955C2.16583 11.5283 2.16583 12.6904 2.37579 13.8232L0.295709 15.0244C0.0564511 15.1611 -0.0509707 15.4443 0.0271543 15.708C0.569147 17.4462 1.492 19.0185 2.69805 20.3271C2.8836 20.5273 3.18633 20.5761 3.42071 20.4394L5.50079 19.2382C6.37481 19.9902 7.38067 20.5712 8.46954 20.9521V23.3544C8.46954 23.6278 8.65997 23.8671 8.92852 23.9257C10.7205 24.3261 12.5565 24.3065 14.2606 23.9257C14.5291 23.8671 14.7195 23.6278 14.7195 23.3544V20.9521C15.8035 20.5663 16.8094 19.9853 17.6883 19.2382L19.7684 20.4394C20.0076 20.5761 20.3055 20.5321 20.491 20.3271C21.6971 19.0234 22.6199 17.4511 23.1619 15.708C23.2352 15.4394 23.1277 15.1562 22.8885 15.0195ZM11.5897 16.0107C9.43634 16.0107 7.6834 14.2578 7.6834 12.1045C7.6834 9.95115 9.43634 8.19824 11.5897 8.19824C13.743 8.19824 15.4959 9.95115 15.4959 12.1045C15.4959 14.2578 13.743 16.0107 11.5897 16.0107Z" fill="black"/>
</svg>
