<svg width="25" height="25" viewBox="0 0 25 25" fill="none" xmlns="http://www.w3.org/2000/svg">
<path id="Vector" d="M12.8439 12.3344C16.6499 12.3344 19.7345 9.69668 19.7345 6.44209C19.7345 3.1875 16.6499 0.549759 12.8439 0.549759C9.0379 0.549759 5.95328 3.1875 5.95328 6.44209C5.95328 9.69668 9.0379 12.3344 12.8439 12.3344ZM17.6673 13.8075H16.7683C15.5732 14.2771 14.2435 14.544 12.8439 14.544C11.4442 14.544 10.1199 14.2771 8.91947 13.8075H8.02046C4.02607 13.8075 0.785339 16.5787 0.785339 19.9945V21.9095C0.785339 23.1294 1.94274 24.1191 3.36931 24.1191H22.3184C23.745 24.1191 24.9024 23.1294 24.9024 21.9095V19.9945C24.9024 16.5787 21.6617 13.8075 17.6673 13.8075Z" fill="#7166F9"/>
</svg>
